<mxfile host="65bd71144e">
    <diagram id="vqnb_iwIF7p_ZAj0fygu" name="Seite-1">
        <mxGraphModel dx="1155" dy="629" grid="1" gridSize="10" guides="1" tooltips="1" connect="1" arrows="1" fold="1" page="1" pageScale="1" pageWidth="827" pageHeight="1169" math="0" shadow="0">
            <root>
                <mxCell id="0"/>
                <mxCell id="1" parent="0"/>
                <mxCell id="2" value="Soziale Interaktion durch Mitteilungen" style="rounded=1;whiteSpace=wrap;html=1;" vertex="1" parent="1">
                    <mxGeometry x="140" y="140" width="160" height="60" as="geometry"/>
                </mxCell>
                <mxCell id="3" value="Geistiger Austausch&amp;nbsp; zwischen Individuen mittels Zeichen" style="rounded=1;whiteSpace=wrap;html=1;" vertex="1" parent="1">
                    <mxGeometry x="380" y="140" width="160" height="60" as="geometry"/>
                </mxCell>
                <mxCell id="4" value="Kommunikation entsteht aus Gemeinsamkeiten und schafft Gemeinsamkeiten" style="rounded=1;whiteSpace=wrap;html=1;" vertex="1" parent="1">
                    <mxGeometry x="620" y="140" width="160" height="60" as="geometry"/>
                </mxCell>
            </root>
        </mxGraphModel>
    </diagram>
</mxfile>